<svg width="200" height="50" viewBox="0 0 200 50" fill="none" xmlns="http://www.w3.org/2000/svg">
<path d="M34.96 25C34.96 30.5 30.46 35 24.96 35C19.46 35 14.96 30.5 14.96 25C14.96 19.5 19.46 15 24.96 15C30.46 15 34.96 19.5 34.96 25Z" fill="#25D366"/>
<path fill-rule="evenodd" clip-rule="evenodd" d="M24.96 42C15.58 42 8 34.42 8 25C8 15.58 15.58 8 24.96 8C34.34 8 41.92 15.58 41.92 25C41.92 34.42 34.34 42 24.96 42ZM24.96 38C32.14 38 37.96 32.18 37.96 25C37.96 17.82 32.14 12 24.96 12C17.78 12 11.96 17.82 11.96 25C11.96 32.18 17.78 38 24.96 38Z" fill="#4A5568"/>
<path d="M28.96 25C28.96 27.22 27.18 29 24.96 29C22.74 29 20.96 27.22 20.96 25C20.96 22.78 22.74 21 24.96 21C27.18 21 28.96 22.78 28.96 25Z" fill="#4A5568"/>
<text fill="#2D3748" xml:space="preserve" style="white-space: pre" font-family="Inter" font-size="24" font-weight="bold" letter-spacing="0em"><tspan x="58" y="34.2273">Whazing</tspan></text>
</svg>
